<svg xmlns="http://www.w3.org/2000/svg" viewBox="0 0 2160 600" fill="#111">
  <path d="M2047.15,79.839l0,11.088l-14.472,0l0,42.192l-11.664,0l0,-42.192l-14.544,0l0,-11.088l40.68,0Zm33.768,39.744l16.056,-39.744l11.448,0l0,53.28l-11.448,0l0,-27.216l-10.584,27.216l-11.016,0l-10.368,-27l0,27l-11.088,0l0,-53.28l11.088,0l15.912,39.744Z"/><path d="M226.036,253.1c5.6,1.6 8.8,3.2 12.8,3.2c8,0 14.4,4.8 19.2,11.2l7.2,12c3.2,3.2 4,7.2 4,12c-0.802,12.787 -0.802,25.613 0,38.4c3.2,33.6 6.4,64.8 12.8,95.2c0.8,2.4 0.8,4.8 1.6,7.2c0.8,9.6 0,12.8 -8.8,12.8c-37.6,2.4 -102.4,18.4 -126.4,-15.2c-4,-7.2 -8.8,-9.6 -16,-8.8c0,4.8 0.8,8.8 0,12.8c-1.6,7.2 0.8,22.4 -2.4,30.4c-4,8 -5.6,2.4 -2.4,10.4c0.8,2.4 0.8,6.4 1.6,9.6c4.8,24.8 7.2,22.4 12.8,47.2c0.8,3.2 123.2,9.6 125.6,0c10.4,-4.8 21.6,8.8 28.8,-4.8c0,-0.8 1.6,-1.6 3.2,-2.4c8.8,-5.6 24.8,-8.8 36,-9.6c2.4,0 5.6,-1.6 8,-4.8c3.2,-3.2 7.2,-4 12,-3.2c1.6,0.8 3.2,0.8 5.6,0c3.2,-2.4 14.4,-8 16.8,-2.4c4.8,-11.2 14.4,-2.4 21.6,-8.8c7.2,-6.4 19.2,-9.6 28.8,-11.2c6.4,-0.8 12.8,-4 19.2,-5.6c19.2,-3.2 34.4,-7.2 51.2,-19.2c12,-6.4 23.2,-14.4 36,-23.2c5.6,-4 10.4,-12 18.4,-8c0.8,0 3.2,-2.4 4.8,-3.2c10.4,-10.4 22.4,-20.8 32.8,-31.2c10.4,-12.8 20,-20 29.6,-31.2c7.2,-12 8,-36 0.8,-45.6c-12.8,-17.6 -25.6,-22.4 -39.2,-36.8c0,-0.8 -1.6,-1.6 -2.4,-1.6c-11.2,-0.8 -22.4,-12.8 -32.8,-12c-12.8,1.6 -24,-4.8 -36,-4.8c-14.4,0 -28.8,-3.2 -43.2,-4.8c-13.6,-1.6 -26.4,-2.4 -40,-3.2c-2.269,-1.103 -4.415,-2.443 -6.4,-4c4,-2.4 6.4,-4.8 8.8,-5.6l28.8,-12.8c4.8,-0.8 5.6,-5.6 10.4,-6.4c9.6,-2.4 18.4,-5.6 28,-8c4.8,-2.4 8.8,-5.6 13.6,-7.2c9.6,-4.8 23.2,-4.8 32,-9.6c10.4,-4 19.2,-10.4 29.6,-16.8c4.8,-2.4 7.2,-4.8 6.4,-10.4c0.114,-5.346 -0.154,-10.692 -0.8,-16l-7.2,-28.8c-3.2,-15.2 -12,-26.4 -22.4,-36c-4,11.2 -4,11.2 -12.8,9.6c-20.8,-5.6 -42.4,-9.6 -63.2,-16c-7.571,-3.276 -15.751,-4.912 -24,-4.8c-20,0 -40,-2.4 -59.2,-4c-10.4,0 -21.6,-2.4 -32,-1.6c-11.2,2.4 -22.4,2.4 -33.6,1.6c-7.2,-1.6 -14.4,0 -20.8,0c-10.4,0.8 -20.8,2.4 -31.2,3.2c-14.4,0.8 -28,0.8 -41.6,2.4c-26.4,4 -52.8,8 -79.2,12.8c-11.855,1.597 -23.432,4.827 -34.4,9.6c-19.2,7.2 -37.6,15.2 -56.8,22.4c-9.6,3.2 -14.4,11.2 -24,12.8c-1.6,8 -8.8,10.4 -10.4,20c-0.8,3.2 -1.6,6.4 -3.2,7.2l0,0.8c0.8,0.8 0.8,1.6 1.6,3.2c9.6,21.6 4.8,12 9.6,36c4,15.2 4,16.8 35.2,4.8c4,5.6 7.2,1.6 12.8,-5.6c8,-8 17.6,-8 24.8,-16.8c4.8,-9.6 10.4,-6.4 16.8,-11.2c8.8,-5.6 51.2,-12.8 59.2,-16c12,-5.6 23.2,-8 36.8,-10.4c10.4,-1.6 26.4,-8.8 43.2,-8.8c2.4,-0.8 5.6,0.8 8,0.8c6.4,-0.8 8.8,1.6 8,10.4c-0.8,14.4 0,36.8 -2.4,50.4c-1.6,8 -7.2,16.8 -10.4,24c-0.881,0.843 -1.997,1.401 -3.2,1.6c-8.8,3.2 -17.6,5.6 -27.2,8.8c-1.6,2.4 -4.8,7.2 -8.8,13.6Zm357.6,77.6c-3.2,6.4 -4.8,9.6 -7.2,12c-9.6,9.6 -31.2,20 -40.8,28.8c-6.4,5.6 -14.4,9.6 -21.6,14.4c-15.2,8.8 -30.4,14.4 -44.8,20.8c-6.06,1.454 -12.205,2.523 -18.4,3.2c-11.2,1.6 -20.8,7.2 -32,10.4c-12.8,2.4 -25.6,2.4 -38.4,4.8c-12.8,1.6 -25.6,3.2 -38.4,5.6c-5.6,0.8 -8,-2.4 -9.6,-7.2c0,-2.4 -0.8,-5.6 -0.8,-8.8c-0.8,-18.4 -1.6,-38.4 -1.6,-57.6c0,-12.8 0.8,-28 0.8,-40.8c0.8,-5.6 0.8,-11.2 0.8,-19.2c0,-5.6 2.4,-8 7.2,-8.8c20,-1.6 40.8,-3.2 61.6,-4c17.6,-0.8 36,-1.6 54.4,3.2c5.6,1.6 12,2.4 17.6,3.2c19.2,4.8 39.2,7.2 57.6,12.8c10.4,3.2 29.6,17.6 40,21.6c4.001,1.6 8.001,3.2 13.602,5.6l-0.002,0Zm-75.2,-189.6c-13.6,12 -139.2,79.2 -163.2,80.8c0,-3.2 -1.6,-25.6 -0.8,-29.6c0.8,-4 7.2,-19.2 5.6,-23.2c-11.2,-24.8 -4.8,-39.2 22.4,-35.2c3.2,0.8 7.2,-2.4 11.2,-3.2l8.8,4c6.4,1.6 12.8,3.2 18.4,-3.2c1.6,-1.6 4,4 6.4,4c1.641,0.127 3.289,-0.148 4.8,-0.8c16,-6.4 31.2,-0.8 47.2,-1.6c14.401,-1.6 25.601,2.4 39.201,8l-0.001,0Zm-161.6,318.4c-4.8,0.8 -9.6,2.4 -15.2,4c-16,4.8 -32,10.4 -48,14.4c-15.369,2.431 -30.858,4.034 -46.4,4.8c-15.2,0.8 -31.2,0 -47.2,0c-4,0 -8.8,-1.6 -13.6,-3.2c21.6,-1.6 42.4,0 64,-4c-32,-0.8 -60,6.4 -90.4,-6.4c1.6,-0.8 0,-7.2 0.8,-7.2c18.4,6.4 36.8,4 54.4,4.8c20,0 40,-3.2 60,-3.2c9.6,0 19.2,0.8 28.8,-3.2c16.8,-4 6.4,18.4 54.4,-9.6l0,1.6c-0.8,0.8 -1.6,2.4 -2.4,3.2c3.2,-0.8 6.4,-2.4 10.4,-3.2c-2.399,4.8 -4.799,7.2 -9.599,7.2l-0.001,0Zm-56,-140.8c-0.435,0.431 -0.716,0.993 -0.8,1.6c-0.456,-0.415 -0.742,-0.986 -0.8,-1.6c-1.6,-8 -3.2,-15.2 -2.4,-25.6c0.8,-9.6 0,-21.6 0.8,-30.4c0,-8.8 0.8,-20.8 1.6,-29.6l1.6,0c0,4 0.8,8.8 0.8,14.4c0,22.4 -0.8,46.4 -0.8,71.2Zm20.8,53.6c-2.4,6.4 -2.4,14.4 -3.2,22.4c-2.4,-8 -2.4,-41.6 -0.8,-50.4l0,0.8c0,7.2 2.4,17.6 4,24.8c0.377,0.283 0.6,0.728 0.6,1.2c0,0.472 -0.223,0.917 -0.6,1.2Zm9.6,36c-0.8,-8.8 -0.8,-16.8 -1.6,-28l1.6,0l2.4,26.4c0.001,1.6 -0.799,2.4 -2.399,1.6l-0.001,0Zm-43.2,-147.2l0,-2.4c0,-5.6 0.8,-13.6 0.8,-20.8c0.847,-0.099 1.664,-0.371 2.4,-0.8c-0.8,9.6 -1.6,17.6 -1.6,24l-1.6,0l0,0Zm169.6,-55.2c8,-2.4 15.2,-5.6 21.6,-8c-5.599,5.6 -15.199,8.8 -21.599,8l-0.001,0Zm74.4,-35.2c-5.6,5.6 -12.8,7.2 -18.4,10.4c4.801,-4 10.401,-8.8 18.401,-10.4l-0.001,0Zm-454.4,-5.6c-5.6,5.6 -12.8,7.2 -18.4,10.4c4.8,-4 10.4,-8.8 18.4,-10.4l0,0Zm-1.6,24.8c3.2,-5.6 6.4,-7.2 12,-8.8c-4,5.6 -7.2,5.6 -12,8.8l0,0Zm454.4,5.6c3.2,-5.6 6.4,-7.2 12,-8.8c-3.999,5.6 -7.199,5.6 -11.999,8.8l-0.001,0Zm12.8,-32c-3.2,4 -6.4,7.2 -10.4,6.4c2.401,-3.2 6.401,-4.8 10.401,-6.4l-0.001,0Zm-454.4,-5.6c-3.2,4 -6.4,7.2 -10.4,6.4c2.4,-3.2 6.4,-4.8 10.4,-6.4l0,0Zm232.8,320.8c4,-4 7.2,-3.2 9.6,-3.2c0.556,0.672 0.842,1.528 0.8,2.4c-3.199,0 -5.599,0.8 -10.4,0.8l0,0Zm13.6,-213.6c0,-3.2 -3.2,-6.4 0.8,-10.4l0,10.4l-0.8,0Zm214.4,-81.6c2.4,-1.6 4,-2.4 6.4,-4c0,0.8 0.8,0.8 0.8,1.6c-2.4,0.8 -4,2.4 -6.4,4.8c0.042,-0.871 -0.243,-1.728 -0.799,-2.4l-0.001,0Zm-454.4,-5.6c2.4,-1.6 4,-2.4 6.4,-4c0,0.8 0.8,0.8 0.8,1.6c-2.4,0.8 -4,2.4 -6.4,4.8c0.042,-0.872 -0.244,-1.728 -0.8,-2.4l0,0Zm201.6,304c-1.6,4.8 -4.8,3.2 -8,2.4c2.4,-0.8 4.8,-1.6 8,-2.4l0,0Zm-8,-142.4c-0.8,-4.8 -0.8,-12 -0.8,-16.8l0.8,0l0,16.8Zm96.8,101.6c0,0 0,-1.6 -0.8,-1.6c1.459,-0.887 3.1,-1.434 4.8,-1.6l0,0.8c-1.599,0.8 -2.399,2.4 -3.999,2.4l-0.001,0Zm-14.4,6.4c-0.058,-0.614 -0.344,-1.185 -0.8,-1.6c1.6,0 3.2,-0.8 4.8,-0.8c0,0.005 0,0.011 0,0.016c0,0.43 0.354,0.784 0.784,0.784c0.005,0 0.011,0 0.016,0c-1.459,0.887 -3.1,1.434 -4.799,1.6l-0.001,0Zm-66.4,-55.2l0,-8.8l0.8,0l0,8.8l-0.8,0Zm-3.2,-45.6l0,-5.6l0.8,0l0,5.6l-0.8,0Zm412,65.6c5.839,0.8 11.761,0.8 17.6,0c3.2,0 6.4,-1.6 8.8,-3.2c4,-2.4 7.2,-5.6 11.2,-8c4,-3.2 5.6,-6.4 4.8,-9.6c4,-4 3.2,-10.4 7.2,-13.6c3.2,-3.2 4,-5.6 4.8,-9.6c8,-26.4 28,-62.4 26.4,-84.8c0,-1.6 0.8,-3.2 0.8,-4.8c-0.8,0 -0.8,-0.8 -1.6,-0.8c-0.8,0.8 -2.4,0.8 -2.4,2.4c-1.6,3.2 -4,6.4 -4.8,9.6c-1.6,6.4 -14.4,34.4 -17.6,39.2c-7.2,9.6 -14.4,18.4 -21.6,28c-5.6,7.2 -12,14.4 -19.2,20c-3.2,2.4 -4,2.4 -6.4,-1.6c-2.592,-3.162 -4.745,-6.661 -6.4,-10.4c-5.6,-11.2 -4,-17.6 7.2,-24c0.614,-0.058 1.185,-0.344 1.6,-0.8c2.596,-2.484 5.003,-5.158 7.2,-8c1.6,-2.4 4,-4.8 5.6,-7.2c0.85,-2.4 2.215,-4.585 4,-6.4c1.6,-3.2 2.4,-5.6 4,-8.8c1.6,-2.4 3.2,-4 4.8,-6.4c3.2,-4.8 4,-10.4 4.8,-15.2c-0.13,-2.428 0.14,-4.86 0.8,-7.2c3.2,-8 4.8,-16.8 6.4,-25.6c0.8,-6.4 2.4,-12.8 0,-20c-2.4,-5.6 -3.2,-12 -4,-17.6c-0.8,-2.4 -1.6,-3.2 -4,-4c-3.2,0 -7.2,-0.8 -9.6,-2.4c-6.084,-4.495 -13.272,-7.26 -20.8,-8c-11.2,-1.6 -22.4,-4.8 -33.6,-4c-4.8,0.8 -6.4,0.8 -8,4.8c-2.4,5.6 -4.8,9.6 -6.4,15.2c-3.2,6.4 -6.4,12.8 -6.4,19.2c-0.8,6.4 -3.2,10.4 -5.6,14.4c-1.6,4 -4,8 -5.6,12c-0.8,2.4 -0.8,5.6 -1.6,8c-2.4,6.4 -4,13.6 -7.2,20c-2.287,5.578 -3.377,11.574 -3.2,17.6c0,12 0.8,24 0,36c-0.8,12 5.6,20.8 12,29.6c2.899,2.999 5.573,6.207 8,9.6c1.089,1.789 2.437,3.406 4,4.8c2.4,2.4 4.8,5.6 8,8c0.8,1.6 2.4,2.4 4,3.2c4.8,2.4 9.6,5.6 15.2,7.2c5.6,1.6 11.2,3.2 16.8,3.2c-0.8,-0.8 -2.4,-0.8 -3.2,-1.6l0,-0.8c1.6,0.8 2.4,0.8 4,1.6c-0.006,0 -0.011,0 -0.017,0c-0.43,0 -0.784,0.354 -0.784,0.784c0,0.005 0,0.011 0,0.016l0.001,0Zm12.8,-167.2c0.521,1.27 0.792,2.628 0.8,4c0,7.2 -0.8,14.4 -0.8,22.4c0,1.6 -0.8,3.2 -1.6,5.6c0,1.6 -0.8,3.2 -0.8,4.8c0.8,4.8 -0.8,9.6 -2.4,14.4c-3.2,8 -6.4,16.8 -9.6,24.8c-0.8,2.4 -0.8,4 -1.6,6.4c-1.22,1.203 -2.294,2.546 -3.2,4c-1.265,-3.868 -1.808,-7.936 -1.6,-12l0,-4.8c-3.2,-7.2 0,-14.4 1.6,-20.8c2.258,-10.507 5.749,-20.711 10.4,-30.4c1.6,-4 3.2,-8.8 4.8,-13.6c1.247,-1.67 2.582,-3.272 3.999,-4.8l0.001,0Zm-48,-9.6c0,-3.2 1.6,-5.6 2.4,-8.8c0,-3.2 3.2,-5.6 4,-8l0.8,0c-2.4,5.6 -4,11.2 -6.4,17.6c0,-0.005 0,-0.011 0,-0.016c0,-0.43 -0.354,-0.784 -0.784,-0.784c-0.006,0 -0.011,0 -0.017,0l0.001,0Zm8,156c-3.2,-4 -6.4,-8.8 -6.4,-15.2c3.2,5.6 4.8,10.4 7.2,15.2l-0.8,0l0,0Zm0.8,-185.6c0.005,0 0.011,0 0.016,0c0.43,0 0.784,0.354 0.784,0.784c0,0.005 0,0.011 0,0.016c-1.775,2.558 -3.379,5.23 -4.8,8c-0.001,-4 1.599,-6.4 3.999,-8.8l0.001,0Zm8,194.4c-0.781,-1.773 -1.864,-3.397 -3.2,-4.8c1.6,-0.8 3.2,3.2 4,4c-0.006,0 -0.011,0 -0.017,0c-0.43,0 -0.784,0.354 -0.784,0.784c0,0.005 0,0.011 0,0.016l0.001,0Zm11.2,13.6l0.8,-0.8c-0.8,-0.8 -1.6,-1.6 -2.4,-1.6c0.799,0.8 0.799,1.6 1.599,2.4l0.001,0Zm281.59,-152.8c-1.789,1.089 -3.406,2.437 -4.8,4c-4,4 -6.4,8 -11.2,12c-3.66,2.697 -7.135,5.637 -10.4,8.8c-2.4,3.2 -4,6.4 -7.2,8.8c-1.6,1.6 -2.4,3.2 -4,4.8c-5.6,9.6 -11.2,18.4 -16.8,28l0,0.8c-0.781,1.773 -1.864,3.397 -3.2,4.8c-2.4,0.8 -4,1.6 -6.4,0.8c-2.4,0 -4,-1.6 -5.6,-4c-1.6,-2.4 -0.8,-4 -0.8,-6.4l0,-53.6c0.213,-2.983 0.75,-5.933 1.6,-8.8c2.4,-10.4 4.8,-21.6 7.2,-32.8c0,0 1.6,-4 0.8,-4.8c-2.4,-1.6 -5.6,-5.6 -8,-6.4c-8.584,-2.38 -17.527,-3.193 -26.4,-2.4c-7.233,0.921 -12.733,7.109 -12.8,14.4c0,34.4 -10.4,14.4 -28.8,18.4c-8.8,0 -18.4,0 -27.2,-0.8c-11.2,-0.8 -19.2,5.6 -27.2,12.8c-8,7.2 -18.4,64 -20,73.6c-1.6,14.4 0,28 0.8,42.4c0.8,4 0,7.2 0.8,11.2c0,1.6 0,4 0.8,5.6c2.4,6.4 12,11.2 17.6,15.2c2.4,1.6 6.4,5.6 9.6,5.6c4.383,0.054 8.734,-0.762 12.8,-2.4c1.6,0 4,0 5.6,-0.8c0.8,0 1.6,-0.8 2.4,-1.6c2.4,-3.2 6.4,-4 9.6,-6.4c4.8,-2.4 4.8,-7.2 4.8,-12c0.8,-11.2 14.4,-54.4 20,-60l4.8,-4.8l3.2,4.8c0.887,1.459 1.434,3.1 1.6,4.8c3.2,21.6 7.2,51.2 12,72c0,1.6 0,2.4 0.8,3.2c0.8,2.4 2.4,4 2.4,6.4c0.8,0.8 0.8,2.4 0.8,3.2c2.4,12 27.2,16 40,1.6c4,-4.8 6.4,-12 7.2,-18.4c2.4,-11.2 3.2,-23.2 4,-35.2c0,-7.2 3.2,-13.6 5.6,-20.8c0,-1.6 0.8,-3.2 0.8,-4.8c0.703,-3.31 1.777,-6.53 3.2,-9.6c2.4,-5.6 5.6,-11.2 8,-16c3.2,-5.6 8,-10.4 11.2,-16c4.8,-7.2 8.8,-14.4 12.8,-21.6c2.4,-5.6 4.8,-10.4 7.2,-15.2c0.614,-0.638 0.908,-1.521 0.799,-2.4l0.001,0Zm-164,80c-6.4,-9.6 2.4,-33.6 7.2,-43.2c3.2,-6.4 7.2,-12 11.2,-17.6c4.8,-5.6 9.6,-11.2 16.8,-13.6l4,-2.4l1.6,4c1.6,1.6 1.6,3.2 2.4,4.8c0.065,2.853 -0.776,5.654 -2.4,8c-4.8,4.8 -7.2,11.2 -10.4,17.6l-14.4,26.4c-2.4,5.6 -4.8,10.4 -7.2,15.2l-4,7.2l-4.8,-6.4Zm76.8,44.8c-2.4,4.8 -1.6,11.2 -1.6,16.8c-2.4,-5.6 -5.6,-31.2 -4.8,-38.4l0.8,0c0.8,6.4 3.2,12.8 5.6,19.2l0,2.4Zm10.4,28c-0.8,-7.2 -2.4,-14.4 -3.2,-21.6l0.8,0c1.6,6.4 3.2,13.6 4.8,20c-0.002,1.6 -0.802,2.4 -2.402,1.6l0.002,0Zm-28.8,-48l-0.8,0c-0.652,-1.511 -0.927,-3.159 -0.8,-4.8l0.8,0c-0.127,1.641 0.147,3.288 0.798,4.8l0.002,0Zm6.4,34.4l-0.8,0c0,-2.4 -0.8,-4 -0.8,-5.6c0.798,1.6 0.798,3.2 1.598,5.6l0.002,0Zm171.2,-80.8l0,4.8c1.6,39.2 -0.8,72 28,101.6c3.2,3.2 3.2,2.4 8,3.2c5.6,0 14.4,-20 17.6,-26.4c0,-0.8 20.8,-92 30.4,-108.8c0.8,-1.6 3.2,-12 3.2,-13.6c-12.8,0 -31.2,52.8 -34.4,59.2c-2.4,5.6 -2.4,4.8 -5.6,10.4c-4.8,-4.8 -3.2,-3.2 -4,-9.6c-0.8,-12.8 0.8,-20 1.6,-37.6c-0.132,-4.282 0.135,-8.568 0.8,-12.8c3.2,-14.4 2.4,-26.4 5.6,-40c0.975,-3.852 2.315,-7.602 4,-11.2c2.4,-4 2.4,-7.2 -1.6,-12c-4.8,-5.6 -7.2,-4.8 -15.2,-5.6c-4,0 1.6,-0.8 -2.4,-0.8c-6.4,-0.8 -12,-4 -17.6,-0.8c-4.8,3.2 -4,4.8 -8.8,7.2c-8,3.2 -8,3.2 -7.2,12.8c0.8,5.6 -4.8,27.2 -7.2,31.2c-2.4,5.6 -4,25.6 -7.2,31.2c-3.2,7.2 -12,30.4 -20.8,44c-4.8,6.4 -8,10.4 -10.4,13.6c-9.6,13.6 -12.8,-47.2 -11.2,-53.6c1.6,-8.8 4,-17.6 5.6,-26.4c0.928,-4.748 1.463,-9.564 1.6,-14.4c0.8,-6.4 0,-12.8 2.4,-19.2c0.8,-3.2 0,-7.2 -3.2,-8.8c-3.045,-2.389 -6.607,-4.033 -10.4,-4.8c-6.4,-0.8 -21.6,0 -28,0c-7.2,0 -8.8,2.4 -9.6,9.6c-1.6,14.4 -3.2,28 -4.8,42.4c-1.6,14.4 -4,28.8 -2.4,43.2c0.8,12 0.8,24.8 1.6,36.8c0,9.6 -3.2,3.2 -2.4,12.8c0.8,5.6 10.4,26.4 14.4,29.6c7.2,6.4 24,6.4 32,3.2c3.2,-0.8 6.4,-2.4 9.6,-2.4c5.6,-1.6 8,-3.2 8,-9.6c5.6,-7.2 13.6,-16.8 17.6,-27.2c0.8,-1.6 20,-49.6 20.8,-51.2l1.6,0Zm-88,56.8c3.2,5.6 4.8,17.6 4,22.4c-3.209,-4 -4.809,-14.4 -4.009,-22.4l0.009,0Zm-0.8,-42.4c0.8,8.8 2.4,17.6 3.2,26.4c-4.009,-1.6 -4.809,-6.4 -3.209,-26.4l0.009,0Zm-4.8,49.6l-0.8,0l0,-12.8l0.8,0l0,12.8Zm12.8,-76c0,0.8 0.8,2.4 0,2.4c0,0.8 -1.6,1.6 -1.6,2.4c-0.8,-0.8 -0.8,-0.8 -1.6,-0.8c0.8,-1.6 1.6,-2.4 1.6,-4l1.6,0Zm164.793,6.4c0.8,16.8 1.6,33.6 2.4,49.6c0.8,6.4 0,12.8 1.6,18.4c3.2,12 5.6,24 11.2,36c8,17.6 28.8,13.6 40,4c1.278,-0.605 2.177,-1.804 2.4,-3.2c0.8,-4 0,-7.2 0,-10.4c0,-7.2 5.6,-12.8 5.6,-20c0,-4 2.4,-8.8 1.6,-12c-0.802,-3.69 -0.802,-7.51 0,-11.2c0.8,-4.8 0.8,-10.4 2.4,-15.2c1.6,-5.6 4.8,-11.2 6.4,-16.8c7.2,-30.4 14.4,-44.8 28,-72.8c0.8,-1.6 0.8,-3.2 1.6,-5.6c-4.8,5.6 -8.8,11.2 -13.6,16l-4.8,4.8c-2.4,4.8 -4.8,10.4 -7.2,16l-12,26.4c-4.8,8 -9.6,16 -13.6,24.8c-3.2,7.2 -5.6,14.4 -8,20.8c-0.8,1.6 -2.4,2.4 -4,3.2c-5.6,-3.2 4,-78.4 7.2,-96c3.2,-18.4 7.2,-47.2 9.6,-65.6c0.8,-4.8 3.2,-5.6 7.2,-5.6c1.511,-0.652 3.159,-0.927 4.8,-0.8c11.2,0.8 21.6,1.6 32.8,2.4c11.2,0.8 23.2,0 34.4,7.2c2.4,2.4 5.6,0.8 7.2,-1.6c2.4,-2.4 3.2,-4 1.6,-7.2c-1.6,-2.4 -1.6,-4.8 -2.4,-7.2c-1.6,-4.8 -5.6,-8.8 -10.4,-9.6c-8,-1.6 -16,-2.4 -24,-3.2l-11.2,0c-2.47,0.149 -4.9,0.689 -7.2,1.6c-3.2,-3.2 -7.2,-1.6 -11.2,-1.6c-4.8,0 -9.6,0.8 -12.8,-2.4c0.8,-2.4 1.6,-4 1.6,-5.6c0.8,-5.6 1.6,-11.2 2.4,-16c0.8,-6.4 -0.8,-12.8 -6.4,-16.8c-6.491,-4.042 -13.955,-6.253 -21.6,-6.4c-4,-0.8 -8.8,0 -12.8,-0.8c-5.6,-1.6 -10.4,0.8 -10.4,7.2c-0.096,5.368 -0.631,10.719 -1.6,16c-0.8,4.8 -3.2,9.6 -3.2,14.4c-0.8,6.4 -1.6,8 -8.8,8c-3.2,0 -6.4,-0.8 -9.6,-0.8l-6.4,0c-6.4,0.8 -12.8,2.4 -19.2,0c-0.8,-0.8 -3.2,0 -4,0.8c-6.4,5.6 -10.4,12.8 -7.2,22.4l7.2,0c8.8,-0.8 17.6,0 26.4,-1.6c5.6,0 10.4,-0.8 16,1.6c-0.8,6.4 -0.8,12.8 -1.6,18.4c-0.8,12 -2.4,13.6 -3.2,25.6c-0.809,18.4 -3.209,56 -3.209,70.4l0.009,0Zm240,-95.2c-2.4,0 -4.8,0 -7.2,-1.6c-13.6,-6.4 -36.8,-6.4 -49.6,1.6l0,7.2c0,8.8 -0.8,17.6 -0.8,26.4c-0.8,7.2 -9.6,60 -10.4,62.4c-1.6,5.6 -8,28.8 -10.4,34.4c-2.981,8.462 -6.453,16.743 -10.4,24.8c-6.4,12 -10.4,19.2 -16,2.4c-8.8,-36.8 -4,-71.2 8.8,-108l0,-3.2c-1.6,-3.2 -8.8,-6.4 -12.8,-8c-0.431,-0.435 -0.993,-0.716 -1.6,-0.8c-2.105,-1.504 -4.614,-2.34 -7.2,-2.4c-8.8,0 -6.4,-3.2 -15.2,-1.6c-0.8,0 -1.6,-0.8 -2.4,-0.8c-4,-0.8 -8,0 -12,1.6c-1.6,0.8 -3.2,1.6 -3.2,4.8c-6.4,85.6 -6.4,100 8,154.4c2.4,9.6 17.6,17.6 26.4,19.2c7.2,1.6 15.2,0 20,-5.6c9.6,-0.8 31.2,-52 29.6,-54.4c0.8,1.6 -0.8,10.4 -1.6,15.2c0,1.6 -0.8,8 -0.8,9.6c-0.8,5.6 -2.4,12 1.6,18.4c2.4,3.2 -0.8,7.2 -1.6,10.4c-1.6,8 -2.4,15.2 -3.2,22.4c0,21.6 -2.4,54.4 -3.2,76c0.8,0 1.6,-0.8 2.4,-0.8c-0.8,8 -0.8,15.2 -1.6,24c0.8,12.8 2.4,16.8 16.8,17.6c0,0 19.2,6.4 24.8,5.6c5.6,-0.8 7.2,2.4 8.8,-6.4c0.8,-3.2 0.8,-6.4 1.6,-9.6c-0.124,-1.382 0.154,-2.772 0.8,-4c0,-1.6 -0.8,-3.2 0,-5.6c0,-0.8 2.4,-5.6 4,-6.4l-0.8,0c-0.8,-2.4 0,-4 0.8,-6.4c1.691,-3.872 3.029,-7.888 4,-12c0.936,-1.574 0.596,-3.614 -0.8,-4.8c-1.6,4 -1.6,7.2 -4,10.4c0.8,-8 4.8,-16 6.4,-23.2c-0.8,-0.8 -0.8,-0.8 -2.4,-0.8c11.2,-27.2 27.2,-107.2 40.8,-134.4c4.8,-8.8 7.2,-18.4 10.4,-28c-1.6,-0.8 7.2,-17.6 4.8,-19.2c-3.2,-2.4 0.8,-4 -2.4,-0.8c-0.8,0.8 -0.8,1.6 -1.6,2.4c-0.8,3.2 -4.8,4.8 -7.2,8c-6.4,11.2 -22.4,44.8 -36,81.6c-12.8,36.8 -22.4,76.8 -24,76.8l4,-33.6l0.8,0.8c3.2,1.6 1.6,-13.6 1.6,-24l0.8,-8.8l0.8,-0.8c0.618,-1.435 1.425,-2.78 2.4,-4l0,-0.8c2.4,-8.8 0,-18.4 1.6,-23.2c3.2,-7.2 1.6,-16 1.6,-23.2c-0.8,-15.2 2.4,-12.8 2.4,-21.6c0.101,-4.197 1.198,-8.31 3.2,-12c-0.8,5.6 -0.8,12 -1.6,17.6c0.8,-3.2 1.6,-5.6 2.4,-8c0,-5.6 0.8,-10.4 0.8,-14.4c1.6,-3.2 2.4,-5.6 0.8,-7.2c3.2,-37.6 5.6,-48 12,-74.4c0.8,-2.4 1.6,-5.6 2.4,-8c1.6,-5.6 3.2,-10.4 2.4,-16c-0.435,-0.431 -0.716,-0.993 -0.8,-1.6c-1.609,-3.2 -4.809,-4.8 -8.009,-5.6l0.009,0Zm-117.6,158.4l0,15.2c0,0.8 0,0.8 -0.8,1.6c-1.6,-3.2 0,-7.2 -3.2,-9.6c0.66,2.34 0.93,4.772 0.8,7.2c0,2.4 0.8,4.8 0,7.2c-0.8,-2.4 -2.4,-4 -2.4,-4.8c0.8,-2.4 -0.8,-3.2 0,-7.2c0.8,-2.4 0,-4.8 0,-8c0,-3.2 0.8,-6.4 0,-9.6l0,-0.8c-1.6,-5.6 -0.8,-12.8 0,-18.4c0.665,-4.232 0.932,-8.518 0.8,-12.8c0,-1.6 0.8,-2.4 0.8,-4c1.6,0 0.8,10.4 0.8,12.8c0.336,-0.915 0.884,-1.738 1.6,-2.4c0,1.6 0.8,3.2 0,4.8c-0.009,4 1.591,24.8 1.591,28.8l0.009,0Zm-12.8,-4.8c1.6,5.6 0.8,9.6 1.6,14.4c0,4.8 0.8,8.8 0.8,14.4c-2.409,-4 -4.009,-23.2 -2.409,-28.8l0.009,0Zm117.6,-53.6c4,-33.6 4,-15.2 2.4,3.2l-2.4,-3.2Zm-54.4,146.4l-1.6,0l-0.8,-11.2l1.6,0l0.8,11.2Zm-47.2,-88l5.6,0c0,0.8 -1.6,1.6 -3.2,2.4c-1.606,-0.8 -2.409,-1.6 -2.409,-2.4l0.009,0Zm-9.6,-6.4l-0.8,0c-0.799,-1.211 -0.799,-2.789 0,-4l0.8,-0.8c-0.809,2.4 -0.809,3.2 -0.009,4.8l0.009,0Zm107.2,166.4c-0.005,0 -0.011,0 -0.016,0c-0.43,0 -0.784,0.354 -0.784,0.784c0,0.005 0,0.011 0,0.016c0,-0.005 0,-0.011 0,-0.016c0,-0.43 0.354,-0.784 0.784,-0.784l0.016,0Zm492.781,-83.2c-1.6,-5.6 -18.4,-12.8 -20,-17.6c-1.6,0 -2.4,-0.8 -3.2,0c-4.8,0.8 -9.6,-4 -14.4,-4c-56,-2.4 -114.4,0 -109.6,9.6c-1.6,0 -4,0.8 -4,2.4c0,1.6 -7.2,-1.6 -10.4,-2.4c2.4,-0.8 4.8,-2.4 7.2,-3.2c0,-0.8 0,-0.8 -0.8,-1.6c-23.2,2.4 -33.6,3.2 -29.6,5.6c-32.8,-2.4 -109.6,14.4 -159.2,17.6l-0.8,-0.8c0.8,-0.8 0.8,-1.6 1.6,-4c-2.4,0.8 -4.8,0.8 -4.8,1.6c-0.8,0.8 0,3.2 0,4.8c-0.638,0.615 -1.521,0.909 -2.4,0.8c-0.77,0.988 -1.947,1.577 -3.2,1.6c-0.8,0 -0.8,0.8 -2.4,0c-5.6,-0.8 -7.2,-4.8 -8,-1.6l-16.8,0.8c-1.6,-2.4 -1.6,-4.8 -1.6,-7.2l0,-20c0,-7.2 0.8,-14.4 0.8,-21.6l-1.6,-1.6c2.4,-3.2 0.8,-7.2 0.8,-10.4c0.8,-2.4 0.8,-14.4 0.8,-16c-1.002,-1.699 -1.553,-3.628 -1.6,-5.6c0.431,-0.435 0.993,-0.716 1.6,-0.8l0,-0.8c0,-0.8 0,-0.8 0.8,-1.6c-0.005,0 -0.011,0 -0.016,0c-0.43,0 -0.784,-0.354 -0.784,-0.784c0,-0.005 0,-0.011 0,-0.016c-0.8,0.8 -0.8,1.6 -1.6,2.4c-1.6,-8 -1.6,-24 0.8,-27.2c-1.002,-1.699 -1.553,-3.628 -1.6,-5.6c-1.6,3.2 -1.6,3.2 -5.6,1.6c0.8,-1.6 1.6,-2.4 1.6,-4c1.435,0.618 2.78,1.425 4,2.4c-1.6,-4 -0.8,-6.4 0.8,-8c-0.8,-1.6 -2.4,-4 0,-4.8c0.8,0 0.8,-1.6 0.8,-2.4l0,-4.8c-0.084,-0.607 -0.365,-1.169 -0.8,-1.6l0.8,-0.8l0,-0.8c-0.615,-0.638 -0.909,-1.521 -0.8,-2.4l0,-4.8c0,-0.8 0,-0.8 0.8,-0.8c-0.005,0 -0.011,0 -0.016,0c-0.43,0 -0.784,-0.354 -0.784,-0.784c0,-0.005 0,-0.011 0,-0.016l-0.8,-2.4c-0.8,-0.8 -1.6,-0.8 -2.4,-1.6c-0.8,0.8 -4,7.2 -4,7.2c0,0.8 1.6,1.6 2.4,1.6c-4,4 -1.6,-0.8 -2.4,-0.8c0,-0.8 -5.6,-6.4 5.6,-12c0,0.8 0.8,0.8 0.8,1.6l0,-4c0,-0.8 -1.6,-0.8 -3.2,-2.4l2.4,-2.4c-0.879,0.109 -1.762,-0.185 -2.4,-0.8c1.6,0 2.4,-0.8 4,-0.8l0,-0.8c0,-3.2 0.8,-7.2 0.8,-10.4c0.8,-1.6 0.8,-3.2 -1.6,-4.8c-2.4,-1.6 0,-4 0.8,-5.6c-0.054,1.378 0.22,2.749 0.8,4c0.8,-3.2 3.2,-6.4 0,-8.8c0.8,-0.8 1.6,-1.6 1.6,-2.4c0,-2.4 0,-5.6 0.8,-8c0.8,-5.6 1.6,-10.4 2.4,-16c0,-1.6 0.8,-2.4 3.2,-2.4l0,2.4c-0.8,8.8 -2.4,16.8 -3.2,25.6c0.083,2.163 -0.187,4.324 -0.8,6.4c0.8,-1.6 0.8,-2.4 1.6,-3.2c0.8,-0.8 0.8,-5.6 2.4,-13.6l0,-3.2c4,-26.4 8,-71.2 7.2,-72c0,-0.8 0,-2.4 0.8,-3.2c1.6,-2.4 3.2,-5.6 0.8,-9.6c0,-0.8 0.8,-1.6 0.8,-2.4c-0.067,-1.638 0.205,-3.272 0.8,-4.8c2.4,0 3.2,-2.4 2.4,-4.8c0,-0.8 0.8,-1.6 0.8,-2.4c0.8,-1.6 0.8,-3.2 1.6,-4.8c0,-0.8 0.8,-2.4 0.8,-3.2c11.2,-17.6 4.8,-30.4 24,-48.8c0.8,5.6 -4.8,40.8 1.6,48c0,0.005 0,0.011 0,0.016c0,0.43 0.354,0.784 0.784,0.784c0.005,0 0.011,0 0.016,0c0.8,-1.6 8,-19.2 7.2,-20.8c5.6,0.8 4,-3.2 4,-5.6c8.8,-55.2 37.6,-35.2 38.4,-64c-12,-8 -14.4,-9.6 -27.2,-12.8c-2.839,-1.767 -5.777,-3.37 -8.8,-4.8c-3.2,-1.6 -7.2,-3.2 -11.2,-4.8c-1.6,-0.8 -2.4,-2.4 -4,-3.2c-6.4,-4 -12.8,-5.6 -18.4,-4c-3.2,1.6 -12,5.6 -14.4,7.2c-40.8,55.2 -34.4,70.4 -59.2,120.8c-1.6,3.2 -2.4,6.4 -1.6,9.6l2.4,-2.4c2.4,8 0,13.6 -3.2,19.2c-0.8,2.4 -0.8,4.8 -1.6,6.4c-0.8,2.4 -0.8,4 -3.2,5.6c-1.6,0 -0.8,4 -1.6,6.4l0.8,0c0.8,-0.8 0.8,-1.6 1.6,-2.4c0,2.4 0.8,4.8 -0.8,5.6c-3.2,1.6 -4,5.6 -4.8,8.8l-1.6,24c-0.8,8.8 -2.4,17.6 -3.2,26.4l0.8,8.8c0,-0.8 0.8,-2.4 0.8,-4c1.193,0.962 1.8,2.481 1.6,4c0,-1.6 0,-3.2 2.4,-4l2.4,7.2c-1.251,-0.58 -2.622,-0.854 -4,-0.8c-0.615,-0.638 -0.909,-1.521 -0.8,-2.4c-0.879,-0.109 -1.762,0.185 -2.4,0.8c-0.8,0 -0.8,0.8 -0.8,1.6c-1.6,12 -2.4,23.2 -3.2,35.2c0,10.4 0,20 -0.8,30.4c-0.8,8.8 -4,17.6 -4,25.6c-0.8,8.8 0.8,26.4 -0.8,34.4c-0.8,8.8 -2.4,17.6 -3.2,27.2c-0.8,5.6 -0.8,11.2 -1.6,16.8c-1.6,7.2 -2.4,14.4 -0.8,22.4c0.8,0.8 0,1.6 0,2.4c-3.2,4.8 -4,10.4 -4.8,16c-4,2.4 -4,2.4 -5.6,2.4c-16,4 -14.4,9.6 -30.4,3.2c-0.8,1.6 -0.8,2.4 -1.6,4c-0.8,-2.4 -2.4,-3.2 -3.2,-4.8c-1.6,0 -1.6,1.6 -3.2,0.8c-1.801,-0.945 -3.674,-1.747 -5.6,-2.4l0,4c2.4,15.2 27.2,16.8 36.8,40c4.8,11.2 12.8,9.6 19.2,17.6c1.6,0 8.8,3.2 8.8,1.6c0.8,-2.4 2.4,-2.4 5.6,-0.8c0.8,0 2.4,0.8 3.2,0.8c4.8,-2.4 9.6,-4 13.6,-8c0.607,-0.084 1.169,-0.365 1.6,-0.8c0.614,0.058 1.185,0.344 1.6,0.8c0.8,0 0.8,-0.8 1.6,-0.8c0.435,-0.431 0.716,-0.993 0.8,-1.6c0.084,-0.607 4.8,0.8 8,-2.4c8.8,-1.6 17.6,-4 26.4,-6.4c12.8,-4.8 25.6,-5.6 38.4,-11.2c39.2,-7.2 144.8,-31.2 184,-42.4l3.2,0c0,-1.6 -0.8,-3.2 0,-3.2c2.4,-0.8 4.8,-2.4 7.2,-2.4c4.836,-0.137 9.652,-0.672 14.4,-1.6c4,-0.8 6.4,-1.6 8,-4.8c1.6,-3.2 6.4,-3.2 10.4,-3.2c2.4,-0.8 5.6,0 8.8,0l0.8,0c-1.6,0.8 -3.2,0.8 0.8,0.8c1.724,-0.039 3.397,-0.596 4.8,-1.6c0,-2.4 3.2,-2.4 4.8,-4c3.2,-1.6 7.2,2.4 10.4,1.6c0.8,-0.8 1.6,-1.6 0.8,-2.4c-1.6,-2.4 0,-2.4 1.6,-2.4c3.665,1.408 7.772,1.114 11.2,-0.8c2.4,-0.8 5.6,-5.6 8.8,-3.2l-5.6,5.6c-0.8,0.8 -2.4,1.6 -2.4,2.4c-0.8,0.8 -3.2,0 -1.6,2.4c-7.2,2.4 -14.4,7.2 -22.4,11.2l-4.8,0c-0.638,0.615 -1.521,0.909 -2.4,0.8c-6.4,3.2 -13.6,6.4 -20,9.6c-0.8,0.8 0,0.8 1.6,0.8c-4.8,1.6 -9.6,3.2 -13.6,4.8c-6.4,2.4 -12,4 -18.4,6.4c-14.4,5.6 -27.2,8.8 -41.6,15.2c-0.8,0 -1.6,0.8 -2.4,1.6c3.2,3.2 5.6,3.2 8.8,2.4c13.6,-4.8 28,-5.6 41.6,-9.6c4.8,-1.6 9.6,-4.8 15.2,-5.6c10.4,-1.6 2.4,3.2 11.2,-0.8c3.2,-0.8 6.4,-2.4 12,0l1.6,0c2.4,-1.6 4.8,-5.6 7.2,-3.2c2.4,0 4.8,-1.6 7.2,-1.6c2.4,0.8 4,0 4.8,-1.6c0,-2.4 3.2,-2.4 4.8,-4c0.8,-0.8 3.2,0 4.8,2.4c-1.6,0.8 -4,1.6 -5.6,2.4c4.331,0.709 8.777,0.154 12.8,-1.6c2.4,-0.8 4.8,-2.4 7.2,-3.2c5.6,-1.6 38.4,-15.2 41.6,-15.2c4,0 8.8,0 10.4,-4c0.8,-0.8 3.2,-1.6 4.8,-2.4c-0.435,-0.431 -0.716,-0.993 -0.8,-1.6c0,-2.4 -1.6,-4.8 -0.8,-7.2c0,-3.2 3.2,-3.2 8,-1.6c-1.6,-1.6 -1.6,-2.4 -2.4,-3.2c1.541,-0.543 3.166,-0.814 4.8,-0.8Zm-423.2,-124c0.658,-2.066 0.929,-4.236 0.8,-6.4c0,-9.6 1.6,-20 1.6,-30.4c0,-9.6 0.8,-20 1.6,-31.2c1.6,5.6 -0.8,64.8 -4,68Zm20,-49.6c0.614,-0.058 1.185,-0.344 1.6,-0.8c0,4.8 -0.8,8.8 -0.8,12.8c-0.8,6.4 -0.8,12.8 -1.6,19.2c0,1.6 -0.8,2.4 -2.4,4c-0.126,-11.811 0.946,-23.605 3.2,-35.2l0,0Zm7.2,-29.6c-0.8,5.6 -0.8,11.2 -1.6,16.8c0,3.2 0,5.6 -0.8,8l-0.8,0.8c-0.133,-5.08 0.135,-10.162 0.8,-15.2c0,-2.4 0,-5.6 0.8,-8c0,-0.8 0,-1.6 1.6,-2.4l0,0Zm24.8,-30.4c-1.6,-2.4 -0.8,-4 0,-6.4c-0.8,-0.8 -1.6,-1.6 -0.8,-2.4c0.149,-2.47 0.689,-4.9 1.6,-7.2c0.8,0 0.8,0 1.6,0.8c-0.8,2.4 -1.6,5.6 -2.4,8.8c0,0.8 0.8,0.8 0.8,1.6c0,1.6 -0.8,3.2 -0.8,4.8l0,0Zm-13.6,106.4c-1.6,-0.8 -2.4,-2.4 -3.2,-3.2c0.864,-1.483 1.942,-2.831 3.2,-4c0.854,0.058 1.542,0.746 1.6,1.6c-2.4,0.8 0,4 -1.6,5.6l0,0Zm215.2,122.4c0.8,1.6 1.6,2.4 2.4,4l-3.2,0c-0.8,-1.6 -3.2,-4 -4.8,-5.6c1.6,0.8 3.2,0.8 5.6,1.6l0,0Zm-226.4,-154.4l-1.6,0c-0.131,-2.956 0.138,-5.916 0.8,-8.8l0.8,0c0.8,3.2 0,5.6 0,8.8Zm276,189.6c1.6,-0.8 3.2,-1.6 6.4,0c1.6,0.8 -6.4,1.6 -9.6,1.6c0.8,-0.8 2.4,-0.8 3.2,-1.6l0,0Zm-258.4,-188.8c-0.615,-0.638 -0.909,-1.521 -0.8,-2.4c-0.66,2.34 -0.93,4.772 -0.8,7.2l0.8,0c2.4,-0.8 0.8,-3.2 0.8,-4.8Zm-26.4,238.4c-0.005,0 -0.011,0 -0.016,0c-0.43,0 -0.784,-0.354 -0.784,-0.784c0,-0.005 0,-0.011 0,-0.016c1.743,-0.898 3.646,-1.442 5.6,-1.6l0.8,0.8c-2.4,0.8 -4,1.6 -5.6,1.6l0,0Zm32.8,-312c-0.8,-0.8 0,-0.8 0.8,-0.8c0.083,2.163 -0.187,4.324 -0.8,6.4l-0.8,0c0,-2.4 0,-4 0.8,-5.6l0,0Zm-43.2,12.8l-0.8,0c0.8,-2.4 -0.8,-4.8 1.6,-6.4c0,2.4 0,4.8 -0.8,6.4l0,0Zm16,47.2c-0.8,-2.4 -0.8,-4 0,-5.6c2.4,1.6 0.8,3.2 0,5.6l0,0Zm16.8,33.6c0.8,0.8 1.6,0.8 2.4,1.6c0,-0.8 0.8,-1.6 1.6,-2.4c-0.837,-0.139 -1.647,-0.409 -2.4,-0.8l-0.8,0c0.8,0.8 0,1.6 -0.8,1.6l0,0Zm213.6,164c3.2,-0.8 3.2,-0.8 7.2,0.8c-2.428,0.13 -4.86,-0.14 -7.2,-0.8l0,0Zm-257.6,-126.4c0,-0.8 0,-0.8 0.8,-1.6l0.8,15.2c0,-4.8 -1.6,-8.8 -1.6,-13.6Zm-2.4,-180.8c0.8,0 0.8,0 1.6,0.8c0.127,-1.641 -0.148,-3.289 -0.8,-4.8c-0.8,0.8 -0.8,2.4 -0.8,4l0,0Zm44,162.4c-0.521,1.27 -0.792,2.628 -0.8,4c-1.12,0.035 -2.228,-0.242 -3.2,-0.8c1.518,-0.812 2.874,-1.897 4,-3.2l0,0Zm208.8,112c-2.748,-1.165 -5.42,-2.501 -8,-4c2.95,0.669 5.695,2.041 8,4l0,0Zm-203.2,-163.2l2.4,0c-0.744,-1.239 -1.284,-2.59 -1.6,-4c0,1.6 0,3.2 -0.8,4Zm-31.2,252l-1.6,-1.6l3.2,0c0.005,0 0.011,0 0.016,0c0.43,0 0.784,0.354 0.784,0.784c0,0.005 0,0.011 0,0.016c-0.638,0.615 -1.521,0.909 -2.4,0.8Zm14.4,-284.8c-1.6,-1.6 -1.6,-3.2 0,-5.6l0,5.6Zm16.8,52c0.8,0.8 -0.8,2.4 -0.8,3.2c-0.8,0.8 -0.8,1.6 -1.6,3.2c1.6,-2.4 4.8,-4 1.6,-7.2c0.005,0 0.011,0 0.016,0c0.43,0 0.784,0.354 0.784,0.784c0,0.005 0,0.011 0,0.016l0,0Zm-37.6,53.6c-3.2,-0.8 0,-2.4 0.8,-3.2c0,0.8 0,2.4 -0.8,3.2Zm2.4,-133.6l1.6,0c-0.8,1.6 -0.8,3.2 -1.6,4.8l0,-4.8Zm-80.8,276c0,-1.6 0,-2.4 -0.8,-3.2c1.6,0.8 2.4,1.6 3.2,1.6c-0.8,0.8 -0.8,1.6 -2.4,1.6l0,0Zm113.6,-127.2c0,0.8 -0.8,1.6 -0.8,3.2l1.6,0c0,-0.8 0,-2.4 -0.8,-3.2l0,0Zm-21.6,-45.6c0,1.6 -0.8,2.4 -0.8,3.2l-0.8,0c-0.035,-1.12 0.242,-2.228 0.8,-3.2l0.8,0Zm-39.2,-6.4c-0.8,0 -0.8,0 -0.8,-0.8l0,-3.2l0.8,0l0,4Zm20.8,17.6c-1.6,-1.6 -1.6,-1.6 0,-4l0,4Zm-71.2,160l1.6,-1.6c0,1.6 0.8,2.4 0.8,4c-0.8,-1.6 -1.6,-2.4 -2.4,-2.4l0,0Zm88,-130.4l0.8,0c0,0.8 0.8,0.8 0.8,1.6l-1.6,0l0,-1.6Zm-20,-99.2c0,0.8 0,0.8 1.6,1.6c-0.8,0 -0.8,0.8 -1.6,0.8c0,-0.8 -0.8,-1.6 0,-2.4l0,0Zm13.6,32l0.8,0l0,1.6l-0.8,0l0,-1.6Zm-14.4,124l0,-1.6c0,0.8 0,1.6 0.8,1.6l-0.8,0Zm239.2,-204.8c-2.4,0 -4.8,0 -7.2,-1.6c-13.6,-6.4 -36.81,-6.4 -49.61,1.6l0,7.2c0,8.8 -0.8,17.6 -0.8,26.4c-0.8,7.2 -9.6,60 -10.4,62.4c-1.6,5.6 -8,28.8 -10.4,34.4c-2.981,8.462 -6.453,16.743 -10.4,24.8c-6.4,12 -10.4,19.2 -16,2.4c-8.8,-36.8 -4,-71.2 8.8,-108l0,-3.2c-1.6,-3.2 -8.8,-6.4 -12.8,-8c-0.431,-0.435 -0.993,-0.716 -1.6,-0.8c-2.105,-1.504 -4.614,-2.34 -7.2,-2.4c-8.8,0 -6.4,-3.2 -15.2,-1.6c-0.8,0 -1.6,-0.8 -2.4,-0.8c-4,-0.8 -8,0 -12,1.6c-1.6,0.8 -3.2,1.6 -3.2,4.8c-6.4,85.6 -6.4,100 8,154.4c2.4,9.6 17.6,17.6 26.4,19.2c7.2,1.6 15.2,0 20,-5.6c9.6,-0.8 31.2,-52 29.6,-54.4c0.8,1.6 -0.8,10.4 -1.6,15.2c0,1.6 -0.8,8 -0.8,9.6c-0.8,5.6 -2.4,12 1.6,18.4c2.4,3.2 -0.8,7.2 -1.6,10.4c-1.6,8 -2.4,15.2 -3.2,22.4c0,21.6 -2.4,54.4 -3.2,76c0.8,0 1.6,-0.8 2.4,-0.8c-0.8,8 -0.8,15.2 -1.6,24c0.8,12.8 2.4,16.8 16.8,17.6c0,0 19.2,6.4 24.8,5.6c5.6,-0.8 7.2,2.4 8.8,-6.4c0.81,-3.2 0.81,-6.4 1.6,-9.6c-0.124,-1.382 0.154,-2.772 0.8,-4c0,-1.6 -0.8,-3.2 0,-5.6c0,-0.8 2.41,-5.6 4,-6.4l-0.79,0c-0.8,-2.4 0,-4 0.79,-6.4c1.695,-3.87 3.034,-7.887 4,-12c0.945,-1.571 0.608,-3.615 -0.79,-4.8c-1.61,4 -1.61,7.2 -4,10.4c0.79,-8 4.79,-16 6.39,-23.2c-0.79,-0.8 -0.79,-0.8 -2.39,-0.8c11.2,-27.2 27.2,-107.2 40.8,-134.4c4.8,-8.8 7.2,-18.4 10.4,-28c-1.6,-0.8 7.2,-17.6 4.8,-19.2c-3.2,-2.4 0.8,-4 -2.4,-0.8c-0.8,0.8 -0.8,1.6 -1.6,2.4c-0.8,3.2 -4.8,4.8 -7.2,8c-6.4,11.2 -22.4,44.8 -36,81.6c-12.8,36.8 -22.41,76.8 -24.01,76.8l4,-33.6l0.8,0.8c3.2,1.6 1.61,-13.6 1.61,-24l0.79,-8.8l0.8,-0.8c0.621,-1.435 1.431,-2.781 2.41,-4l0,-0.8c2.4,-8.8 0,-18.4 1.59,-23.2c3.21,-7.2 1.6,-16 1.6,-23.2c-0.79,-15.2 2.4,-12.8 2.4,-21.6c0.099,-4.198 1.2,-8.313 3.21,-12c-0.8,5.6 -0.8,12 -1.61,17.6c0.81,-3.2 1.61,-5.6 2.4,-8c0,-5.6 0.81,-10.4 0.81,-14.4c1.6,-3.2 2.4,-5.6 0.8,-7.2c3.2,-37.6 5.6,-48 12,-74.4c0.8,-2.4 1.6,-5.6 2.4,-8c1.6,-5.6 3.2,-10.4 2.4,-16c-0.435,-0.431 -0.716,-0.993 -0.8,-1.6c-1.6,-3.2 -4.8,-4.8 -8,-5.6l0,0Zm-117.61,158.4l0,15.2c0,0.8 0,0.8 -0.8,1.6c-1.6,-3.2 0,-7.2 -3.2,-9.6c0.66,2.34 0.93,4.772 0.8,7.2c0,2.4 0.8,4.8 0,7.2c-0.8,-2.4 -2.4,-4 -2.4,-4.8c0.8,-2.4 -0.8,-3.2 0,-7.2c0.8,-2.4 0,-4.8 0,-8c0,-3.2 0.8,-6.4 0,-9.6l0,-0.8c-1.6,-5.6 -0.8,-12.8 0,-18.4c0.665,-4.232 0.932,-8.518 0.8,-12.8c0,-1.6 0.8,-2.4 0.8,-4c1.6,0 0.8,10.4 0.8,12.8c0.336,-0.915 0.884,-1.738 1.6,-2.4c0,1.6 0.8,3.2 0,4.8c0,4 1.6,24.8 1.6,28.8Zm-12.8,-4.8c1.6,5.6 0.8,9.6 1.6,14.4c0,4.8 0.8,8.8 0.8,14.4c-2.4,-4 -4,-23.2 -2.4,-28.8Zm117.61,-53.6c4,-33.6 4,-15.2 2.4,3.2l-2.4,-3.2Zm-54.41,146.4l-1.6,0l-0.8,-11.2l1.6,0l0.8,11.2Zm-47.2,-88l5.6,0c0,0.8 -1.6,1.6 -3.2,2.4c-1.6,-0.8 -2.4,-1.6 -2.4,-2.4l0,0Zm-9.6,-6.4l-0.8,0c-0.799,-1.211 -0.799,-2.789 0,-4l0.8,-0.8c-0.8,2.4 -0.8,3.2 0,4.8l0,0Zm107.21,166.4c-0.008,0 -0.015,0 -0.023,0c-0.432,0 -0.787,0.355 -0.787,0.787c0,0.004 0,0.009 0,0.013c0,-0.003 0,-0.007 0,-0.01c0,-0.434 0.357,-0.79 0.79,-0.79c0.007,0 0.013,0 0.02,0Zm111.98,-253.6l0,53.6c0.195,3.774 0.731,7.522 1.6,11.2c4,13.6 4,27.2 8.8,40c4.8,16 4,17.6 16.8,29.6c3.2,4 8,5.6 12.8,5.6c5.038,0.665 10.12,0.933 15.2,0.8c4.8,0.8 9.6,0 12,-4c5.6,-6.4 8,-7.2 10.4,-15.2c4,-14.4 3.2,-17.6 6.4,-24.8c0.8,-20.8 23.2,-67.2 24,-77.6c0,-1.6 4.8,-12.8 3.2,-12.8c-12,0 -35.2,73.6 -39.2,81.6c-2.4,5.6 -8.8,10.4 -12.8,16c-4.8,-4.8 -2.4,-8.8 -2.4,-15.2c-0.8,-11.2 -1.6,-14.4 -0.8,-25.6c0.8,-16 1.6,-31.2 3.2,-47.2c0.138,-4.307 0.674,-8.592 1.6,-12.8c4,-14.4 7.2,-28 11.2,-42.4c0.8,-3.2 2.4,-5.6 4.8,-8.8c2.4,-4.8 3.2,-8 -0.8,-12c-5.285,-5.512 -12.394,-8.924 -20,-9.6c-4.8,0 -8.8,-0.8 -13.6,-0.8c-6.4,-0.8 -12.8,-0.8 -19.2,3.2c-4.8,2.4 -9.6,4.8 -15.2,7.2c-8,3.2 -8.8,3.2 -8,12.8c0.093,4.986 -1.004,9.923 -3.2,14.4c-3.2,5.6 -5.6,11.2 -8.8,16.8c-6.4,12 -10.4,24 -19.2,34.4c-0.8,1.6 -0.8,3.2 -1.6,4.8c-0.8,3.2 -1.6,6.4 -4,8c-1.6,-4.8 -1.6,-7.2 -0.8,-12.8c2.4,-8 5.6,-16.8 7.2,-25.6c1.446,-4.708 2.516,-9.523 3.2,-14.4c0,-6.4 0,-12.8 2.4,-19.2c1.6,-4 0.8,-7.2 -2.4,-8.8c-4,-2.4 -7.2,-4 -11.2,-4.8c-6.91,-0.801 -13.89,-0.801 -20.8,0c-8,0 -9.6,1.6 -11.2,9.6c-1.6,14.4 -4,28 -6.4,42.4c-1.6,14.4 -4.8,28 -4,43.2c0.8,12 0,24 0,36.8c0,8.8 0.8,18.4 1.6,28c0.06,2.586 0.896,5.095 2.4,7.2l7.2,7.2c8,6.4 16.8,6.4 25.6,3.2c3.2,-0.8 6.4,-2.4 9.6,-3.2c6.4,-0.8 8.8,-2.4 9.6,-8.8c0.8,-9.6 1.6,-18.4 1.6,-27.2c0.098,-10.785 1.44,-21.523 4,-32c4,-16 8,-31.2 15.2,-46.4c0.8,-1.6 1.6,-4 2.4,-5.6l1.6,0Zm39.2,21.6c0.804,-2.606 0.804,-5.394 0,-8c0.928,-5.017 1.463,-10.099 1.6,-15.2l8.8,-39.2c0,-1.6 0,-3.2 2.4,-2.4c0.8,3.2 0.8,7.2 -2.4,10.4c-0.8,4 -6.4,28.8 -8,32c0.8,7.2 -0.8,14.4 -0.8,20.8l-1.6,1.6Zm17.6,-54.4c0.8,4.8 -4.8,31.2 -6.4,36.8c-0.8,-1.6 -2.4,-1.6 -2.4,-2.4l7.2,-35.2c0,-0.8 0.8,-0.8 1.6,0.8l0,0Zm-7.2,65.6c-0.76,-2.525 -1.835,-4.944 -3.2,-7.2c0,-1.6 0,-3.2 2.4,-3.2c0.858,3.137 1.394,6.354 1.6,9.6l-0.8,0.8Zm7.2,-65.6c1.6,-5.6 1.6,-8 3.2,-12.8c0,4.8 0,8.8 -3.2,12.8l0,0Zm91.99,28c-1.6,0 -3.2,-1.6 -4,-1.6l-2.4,-0.8l-1.6,0.8c0,0.005 0,0.011 0,0.016c0,0.43 -0.354,0.784 -0.784,0.784c-0.005,0 -0.011,0 -0.016,0c-0.615,-0.638 -0.909,-1.521 -0.8,-2.4c1.6,-4 3.2,-8 2.4,-12.8c-0.8,-8.8 1.6,-17.6 2.4,-25.6l0,-3.2c0.8,-0.8 0.8,-2.4 0.8,-3.2c0.8,-6.4 0.8,-12 1.6,-18.4c0.8,0 0.8,-0.8 1.6,-0.8c0,-0.8 0.8,-1.6 1.6,-2.4c0.8,-2.4 1.6,-4 2.4,-6.4c0.8,-5.6 1.6,-10.4 2.4,-16c0.615,-0.638 0.909,-1.521 0.8,-2.4l0,-1.6c0.8,-4.8 2.4,-9.6 3.2,-15.2c1.6,-4.8 1.6,-10.4 4,-14.4c1.6,-3.2 4,-5.6 4,-9.6l0,-7.2c0,-0.8 0.8,-1.6 0.8,-2.4c2.4,-3.2 0.8,-7.2 -1.6,-9.6c-1.445,-2.245 -3.355,-4.155 -5.6,-5.6c-2.4,-2.4 -4.8,-5.6 -8.8,-6.4c-4.8,0 -22.4,-1.6 -25.6,-4c-5.6,-4 -10.4,-2.4 -13.6,4c-4,7.2 -8.8,13.6 -9.6,23.2c0,1.6 -2.4,4.8 -3.2,7.2c-1.6,5.6 -4.8,11.2 -6.4,17.6c-2.4,7.2 -3.2,15.2 -4.8,23.2c-1.6,7.2 -4,14.4 -5.6,21.6c-3.2,6.4 -3.2,12 -0.8,17.6l4,8l4,-7.2c0.8,-2.4 2.4,-4 3.2,-7.2c0.8,-4 0.8,-8 1.6,-12c0.653,-1.926 1.455,-3.799 2.4,-5.6c0.8,0.8 0.8,2.4 0,4l0,0.8c-0.076,1.9 0.195,3.798 0.8,5.6l0,0.8c-2.4,0.8 -3.2,3.2 -3.2,5.6c0.8,6.4 -0.8,12 2.4,17.6c0.8,1.6 0.8,3.2 0.8,5.6c-0.992,2.554 -1.534,5.261 -1.6,8l0,1.6c-2.4,4 -2.4,8.8 -1.6,14.4l0,3.2c-0.084,0.607 -0.365,1.169 -0.8,1.6c-2.4,6.4 -1.6,12.8 -2.4,20c-0.8,4 -0.8,8 -1.6,12l0,16.8c0,1.6 0.8,3.2 1.6,5.6c-0.8,0.8 -0.8,2.4 -0.8,3.2l0,5.6l4,-0.8l0,1.6c0,2.4 -0.8,4 -0.8,5.6c-0.8,1.6 0,2.4 0,4c-0.8,5.6 -1.6,11.2 -0.8,16.8c0,4 1.6,7.2 2.4,11.2c0,0.8 -0.8,2.4 -0.8,3.2c-0.656,1.79 -0.928,3.698 -0.8,5.6l7.2,33.6c1.6,7.2 5.6,13.6 12,16.8c0.8,0.8 2.4,1.6 3.2,2.4c0,0.8 13.6,0.8 13.6,1.6l-12.8,5.6l5.6,-1.6c4,-1.6 20.8,-2.4 24.8,-5.6c4.8,-4 5.6,-8.8 4.8,-14.4c-2.4,-8 -4,-16 -5.6,-24c-2.4,-10.4 -4.8,-20.8 -4,-31.2c-0.103,-6.694 -0.638,-13.375 -1.6,-20c-0.699,-1.815 -1.235,-3.689 -1.6,-5.6c-0.109,-0.879 0.185,-1.762 0.8,-2.4l0,-1.6c0.8,0 0.8,0.8 1.6,0.8c0,-0.8 0.8,-0.8 1.6,-1.6c2.4,5.6 5.6,11.2 8,17.6c2.4,5.6 4.8,12 7.2,17.6c7.2,15.2 14.4,30.4 21.6,44.8c2.4,4.8 6.4,8.8 9.6,12.8c0.8,0.8 1.6,0.8 2.4,1.6c4.147,1.535 8.16,3.408 12,5.6l0.8,0c0.456,-0.415 0.742,-0.986 0.8,-1.6c2.3,-0.911 4.73,-1.451 7.2,-1.6c1.511,-0.652 3.159,-0.927 4.8,-0.8l12,2.4c2.4,0.8 4,0.8 5.6,1.6c-0.8,-4 -3.2,-7.2 -0.8,-10.4c0.8,-1.6 1.6,-4 2.4,-5.6l-0.8,-0.8c0,0.8 -0.8,1.6 -0.8,2.4c0,-3.2 -0.8,-3.2 1.6,-4c3.2,-1.6 4.8,-4.8 5.6,-7.2c0.8,-0.8 0.8,-2.4 0.8,-3.2c-1.6,-1.6 -0.8,-3.2 0,-4.8c-0.8,0 -2.4,0.8 -3.2,0.8c0,0.8 -0.8,0.8 -1.6,0.8c-3.2,4.8 -4.8,9.6 -7.2,14.4c0.8,3.2 -2.4,4 -4,6.4l-0.8,0c0,-0.8 -0.8,-1.6 -1.6,-2.4c0,-0.8 0.8,-1.6 1.6,-2.4c4,-4 7.2,-9.6 10.4,-15.2c0,-0.8 1.6,-1.6 -0.8,-2.4l0,-1.6c0.8,-2.4 2.4,-4.8 3.2,-8c0,-0.8 -0.8,-1.6 0,-2.4c1.6,-2.4 1.6,-4 0.8,-5.6c-0.8,-0.8 -0.8,-0.8 -2.4,-0.8l2.4,-2.4c1.6,1.6 1.6,0 2.4,-0.8c2.4,-4 2.4,-8.8 4.8,-12c2.4,1.6 2.4,1.6 3.2,0l-3.2,0c0.8,-1.6 0.8,-3.2 1.6,-4.8c0,-0.005 0,-0.011 0,-0.016c0,-0.43 -0.354,-0.784 -0.784,-0.784c-0.005,0 -0.011,0 -0.016,0c-1.6,2.4 -3.2,4 -4.8,6.4c3.2,-8.8 6.4,-17.6 12.8,-25.6c-0.8,1.6 -0.8,3.2 -1.6,4c0.8,0.8 0.8,0.8 1.6,0.8c0.8,-1.6 2.4,-3.2 3.2,-4.8c1.6,-2.4 -6.4,-5.6 -3.2,-7.2c2.4,-0.8 4,-2.4 5.6,-3.2c0,-19.2 12,-40.8 12.8,-41.6c7.2,-12 4,-16 0,-12.8c-1.592,1.668 -2.939,3.553 -4,5.6l-7.2,9.6c-8,14.4 -14.4,28.8 -20.8,44c-3.2,5.6 -5.6,12.8 -8.8,18.4c-4,8 -8,15.2 -11.2,23.2c-2.192,3.84 -4.065,7.853 -5.6,12c0,0.8 -0.8,0.8 -1.6,2.4c-1.6,-4 -3.2,-7.2 -4.8,-10.4l-4.8,-9.6c-1.6,-3.2 -3.2,-6.4 -4.8,-10.4c-0.543,1.541 -0.814,3.166 -0.8,4.8c-0.854,-0.058 -1.542,-0.746 -1.6,-1.6c-1.6,-2.4 -3.2,-4.8 -1.6,-7.2c0.8,0.8 1.6,0.8 2.4,1.6c0.8,-1.6 1.6,-3.2 0.8,-4c-0.781,-1.773 -1.864,-3.397 -3.2,-4.8c0.109,-0.879 -0.185,-1.762 -0.8,-2.4c0.8,0 1.6,-0.8 3.2,-1.6l-2.4,-7.2l-7.2,-14.4c0.109,-0.879 -0.185,-1.762 -0.8,-2.4c0,-2.4 -0.8,-4 -1.6,-6.4c0,-2.4 -1.6,-4.8 0.8,-6.4c-0.8,0 -1.6,0.8 -4,1.6c0.8,-4 1.6,-7.2 2.4,-10.4c-0.431,-0.435 -0.993,-0.716 -1.6,-0.8c-0.8,3.804 -1.869,7.547 -3.2,11.2c-2.4,-1.6 -1.6,-4 -0.8,-6.4c-0.109,-0.879 0.185,-1.762 0.8,-2.4c2.4,-4 5.6,-8.8 9.6,-12c12.8,-10.4 16,-20 28.8,-30.4c2.4,-1.6 6.4,-4.8 16.8,-17.6c2.4,-3.2 2.4,-6.4 4,-9.6c0,-0.8 0.8,-1.6 0,-2.4c-0.051,-2.08 -1.3,-3.953 -3.2,-4.8l-4.8,-2.4c-2.304,-3.749 -6.08,-6.364 -10.4,-7.2c-0.607,-0.084 -1.169,-0.365 -1.6,-0.8c-1.6,-0.8 -2.4,-0.8 -3.2,-1.6c-0.8,0 -0.8,-0.8 -1.6,-0.8c-1.6,-0.8 -3.2,-2.4 -4.8,-2.4c-2.119,-0.901 -4.568,-0.595 -6.4,0.8c-1.429,0.629 -2.571,1.771 -3.2,3.2c-0.005,0 -0.011,0 -0.016,0c-0.43,0 -0.784,0.354 -0.784,0.784c0,0.005 0,0.011 0,0.016c-6.4,4.8 -44,50.4 -50.4,60.8c-1.6,1.6 -2.4,2.4 -1.6,4.8l0,0.8Zm-27.2,44c2.4,25.6 5.6,50.4 8,76c0.8,4.8 0,9.6 0,15.2l-1.6,0c-1.6,-10.4 -4,-20.8 -4.8,-32c-1.6,-10.4 -2.4,-21.6 -4,-32c-1.6,-9.6 0,-18.4 0,-27.2c0,-0.8 0.8,-0.8 1.6,-1.6c0.084,0.607 0.365,1.169 0.8,1.6l0,0Zm77.6,42.4c0,-0.005 0,-0.011 0,-0.016c0,-0.43 0.354,-0.784 0.784,-0.784c0.005,0 0.011,0 0.016,0c1.6,0 2.4,1.6 3.2,3.2c3.2,7.2 7.2,14.4 10.4,21.6l0,3.2c-3.201,-4.986 -6.673,-9.794 -10.4,-14.4c0.8,-1.6 -0.8,-2.4 -2.4,-3.2c0.879,0.109 1.762,-0.185 2.4,-0.8c-0.316,-1.41 -0.856,-2.761 -1.6,-4c-0.638,0.615 -1.521,0.909 -2.4,0.8l0,-0.8c0.8,-1.6 1.6,-3.2 0,-4.8l0,0Zm-86.4,18.4c1.6,8.8 2.4,16.8 4,25.6c-0.736,-0.429 -1.553,-0.701 -2.4,-0.8c-0.8,-7.2 -2.4,-14.4 -3.2,-21.6l0,-3.2l1.6,0Zm-8,-81.6c0.8,5.6 0.8,11.2 1.6,16.8l-0.8,0c-0.8,-5.6 -0.8,-11.2 -1.6,-16.8l0.8,0Zm16,-9.6c-0.13,2.428 0.14,4.86 0.8,7.2l-1.6,0l0,-7.2l0.8,0Zm133.6,73.6c2.4,-0.8 1.6,-2.4 2.4,-3.2l-0.8,0c-0.988,0.77 -1.577,1.947 -1.6,3.2l0,0Zm-20.8,52c-0.8,1.6 -0.8,2.4 -1.6,4c0.8,-0.8 1.6,-1.6 2.4,-1.6c0,-0.8 -0.8,-1.6 -0.8,-2.4l0,0Zm-33.6,-71.2c0.615,0.638 0.909,1.521 0.8,2.4l0.8,0c0.109,-0.879 -0.185,-1.762 -0.8,-2.4l-0.8,0Zm4,31.2l0.8,0l0,-1.6l-0.8,0l0,1.6Zm43.2,-8.8l0.8,0l0,-1.6c-0.8,0 -0.8,0.8 -0.8,1.6l0,0Z"/>
</svg>
